<svg enable-background="new 0 0 32 32" height="512" viewBox="0 0 32 32" width="512" xmlns="http://www.w3.org/2000/svg"><path d="m26 32h-20c-3.314 0-6-2.686-6-6v-20c0-3.314 2.686-6 6-6h20c3.314 0 6 2.686 6 6v20c0 3.314-2.686 6-6 6z" fill="#fff9dd"/><path d="m22.167 8h-12.334c-1.011 0-1.833.822-1.833 1.833v9c0 1.011.822 1.833 1.833 1.833h.833v2.834c0 .202.122.385.309.462.062.026.127.038.192.038.13 0 .258-.051.354-.146l3.187-3.187h7.46c1.011 0 1.833-.822 1.833-1.833v-9c-.001-1.012-.823-1.834-1.834-1.834zm-6.167 10.667c-2.389 0-4.333-1.944-4.333-4.333s1.944-4.334 4.333-4.334 4.333 1.944 4.333 4.333-1.944 4.334-4.333 4.334z" fill="#ffd200"/><path d="m17 16c-.171 0-.341-.065-.471-.195l-1-1c-.125-.125-.195-.294-.195-.471v-1.667c-.001-.369.298-.667.666-.667s.667.298.667.667v1.391l.805.805c.26.26.26.682 0 .943-.131.129-.301.194-.472.194z" fill="#ffe777"/></svg>