<?xml version="1.0"?>
<svg xmlns="http://www.w3.org/2000/svg" xmlns:xlink="http://www.w3.org/1999/xlink" xmlns:svgjs="http://svgjs.com/svgjs" version="1.1" width="512" height="512" x="0" y="0" viewBox="0 0 512 512" style="enable-background:new 0 0 512 512" xml:space="preserve" class=""><g><linearGradient xmlns="http://www.w3.org/2000/svg" id="SVGID_1_" gradientUnits="userSpaceOnUse" x1="256" x2="256" y1="512" y2="0"><stop stop-opacity="1" stop-color="#ffffff" offset="0.6488046517661444"/><stop stop-opacity="1" stop-color="#f3f3f3" offset="0.9973"/></linearGradient><linearGradient xmlns="http://www.w3.org/2000/svg" id="SVGID_2_" gradientUnits="userSpaceOnUse" x1="256" x2="256" y1="407" y2="105"><stop stop-opacity="1" stop-color="#00c0ff" offset="0"/><stop stop-opacity="1" stop-color="#55a8ff" offset="1"/></linearGradient><g xmlns="http://www.w3.org/2000/svg"><g><circle cx="256" cy="256" fill="url(#SVGID_1_)" r="256" data-original="url(#SVGID_1_)" style=""/></g><g><g><path d="m326.761 185.751c-20.938-4.791-42.702-8.582-61.863-9.534v70.885h70.859c-.977-17.235-4.506-39.087-8.996-61.351zm26.806 61.351h53.433c-.374-14.082-1.551-27.233-3.349-39.414-11.73-3.967-33.218-10.899-57.793-17.288 3.921 20.534 6.857 40.43 7.709 56.702zm-177.324 0h70.859v-70.885c-19.161.953-40.925 4.743-61.861 9.534-4.491 22.266-8.02 44.12-8.998 61.351zm88.655 159.898c15.748-.417 30.388-1.82 43.749-3.977 4.136-15.639 9.294-36.113 14.052-57.581-19.597 4.18-39.669 7.324-57.801 8.149zm43.75-298.023c-13.361-2.157-28.002-3.56-43.75-3.977v53.409c18.133.825 38.205 3.969 57.803 8.149-4.759-21.467-9.917-41.941-14.053-57.581zm-142.507 81.423c-24.575 6.389-46.062 13.322-57.793 17.288-1.798 12.181-2.976 25.332-3.349 39.414h53.433c.853-16.272 3.789-36.168 7.709-56.702zm37.211 212.623c13.361 2.157 28.002 3.56 43.75 3.977v-53.409c-18.133-.826-38.205-3.969-57.803-8.149 4.759 21.467 9.917 41.941 14.053 57.581zm-14.051-236.465c19.597-4.179 39.669-7.324 57.801-8.149v-53.409c-15.748.417-30.388 1.82-43.749 3.977-4.135 15.64-9.294 36.114-14.052 57.581zm-30.868 98.34h-53.433c.373 14.082 1.551 27.232 3.349 39.414 11.73 3.967 33.218 10.899 57.793 17.288-3.921-20.534-6.857-40.43-7.709-56.702zm25.529-152.24c-20.655 4.685-37.593 10.766-50.374 16.315-2.068.895-3.719 2.546-4.623 4.614-5.872 13.526-12.286 31.823-17.062 54.138 14.275-4.667 35.195-11.055 58.188-16.726 4.508-21.152 9.544-41.678 13.871-58.341zm144.076 286.684c20.655-4.685 37.593-10.766 50.374-16.315 2.068-.895 3.719-2.546 4.623-4.614 5.872-13.526 12.286-31.823 17.062-54.138-14.275 4.667-35.195 11.055-58.188 16.726-4.508 21.152-9.544 41.678-13.871 58.341zm72.06-211.617c-4.776-22.315-11.19-40.612-17.062-54.138-.904-2.068-2.555-3.719-4.623-4.614-12.782-5.549-29.719-11.63-50.374-16.315 4.326 16.663 9.363 37.188 13.871 58.341 22.992 5.671 43.912 12.059 58.188 16.726zm-288.196 136.55c4.776 22.315 11.19 40.612 17.062 54.138.904 2.068 2.555 3.719 4.623 4.614 12.782 5.549 29.719 11.63 50.374 16.315-4.326-16.663-9.363-37.188-13.871-58.341-22.992-5.671-43.912-12.059-58.188-16.726zm73.337 1.973c20.938 4.791 42.702 8.582 61.863 9.534v-70.885h-70.859c.977 17.236 4.506 39.088 8.996 61.351zm160.62-4.648c24.575-6.389 46.062-13.322 57.793-17.288 1.798-12.182 2.975-25.332 3.349-39.414h-53.433c-.853 16.272-3.789 36.168-7.709 56.702zm-80.961-56.702v70.885c19.161-.953 40.925-4.743 61.861-9.534 4.491-22.266 8.02-44.119 8.998-61.351z" fill="url(#SVGID_2_)" data-original="url(#SVGID_2_)" style=""/></g></g></g></g></svg>
