<svg id="bold" enable-background="new 0 0 32 32" height="512" viewBox="0 0 32 32" width="512" xmlns="http://www.w3.org/2000/svg"><path d="m26 32h-20c-3.314 0-6-2.686-6-6v-20c0-3.314 2.686-6 6-6h20c3.314 0 6 2.686 6 6v20c0 3.314-2.686 6-6 6z" fill="#e3f8fa"/><g fill="#8ce1eb"><circle cx="16" cy="18" r="1.333"/><path d="m18.167 23.333h-4.333c-.276 0-.5-.224-.5-.5v-1c0-1.011.822-1.833 1.833-1.833h1.667c1.011 0 1.833.822 1.833 1.833v1c0 .276-.224.5-.5.5z"/><path d="m20.167 19.333h-.887c.653.633 1.053 1.52 1.053 2.5v.167h1.167c.273 0 .5-.227.5-.5v-.333c0-1.014-.82-1.834-1.833-1.834z"/><path d="m11.833 19.333c-1.013 0-1.833.82-1.833 1.833v.334c0 .273.227.5.5.5h1.167v-.167c0-.98.4-1.867 1.053-2.5z"/><circle cx="12.667" cy="17.333" r="1.333"/><circle cx="19.333" cy="17.333" r="1.333"/></g><path d="m9.7 18.851c.168-.154.35-.294.548-.41-.155-.338-.248-.711-.248-1.108 0-1.47 1.196-2.667 2.667-2.667.837 0 1.577.396 2.066 1.002.379-.207.806-.335 1.267-.335s.889.128 1.267.335c.489-.606 1.229-1.002 2.066-1.002 1.47 0 2.667 1.196 2.667 2.667 0 .396-.093.769-.248 1.108.127.074.248.159.364.249 1.131-.719 1.884-1.974 1.884-3.401 0-2.044-1.538-3.75-3.551-4.004-.875-1.6-2.59-2.618-4.449-2.618-2.363 0-4.413 1.644-4.931 3.886-1.723.181-3.069 1.628-3.069 3.38 0 1.246.688 2.326 1.7 2.918z" fill="#26c6da"/></svg>