<?xml version="1.0"?>
<svg xmlns="http://www.w3.org/2000/svg" xmlns:xlink="http://www.w3.org/1999/xlink" xmlns:svgjs="http://svgjs.com/svgjs" version="1.1" width="512" height="512" x="0" y="0" viewBox="0 0 512 512" style="enable-background:new 0 0 512 512" xml:space="preserve" class=""><g><linearGradient xmlns="http://www.w3.org/2000/svg" id="SVGID_1_" gradientUnits="userSpaceOnUse" x1="256" x2="256" y1="512" y2="0"><stop stop-opacity="1" stop-color="#ffffff" offset="0.552249864888636"/><stop stop-opacity="1" stop-color="#f2f3f3" offset="1"/></linearGradient><linearGradient xmlns="http://www.w3.org/2000/svg" id="SVGID_2_" gradientUnits="userSpaceOnUse" x1="256" x2="256" y1="404.99" y2="94.058"><stop stop-opacity="1" stop-color="#00c0ff" offset="0"/><stop stop-opacity="1" stop-color="#55a8ff" offset="1"/></linearGradient><g xmlns="http://www.w3.org/2000/svg"><circle cx="256" cy="256" fill="url(#SVGID_1_)" r="256" data-original="url(#SVGID_1_)" style=""/><g fill="url(#SVGID_2_)"><circle cx="256" cy="219.424" r="44.971" fill=""/><path d="m192.031 328.855c15.318 19.42 34.396 44.791 56.582 76.78 1.678 2.415 4.436 3.865 7.387 3.865s5.709-1.449 7.387-3.865c21.967-31.664 40.956-56.956 56.222-76.314 34.378-43.609 53.315-67.632 53.315-109.897 0-64.47-52.454-116.924-116.924-116.924s-116.924 52.454-116.924 116.924c0 42.309 18.805 66.156 52.955 109.431zm63.969-172.39c34.712 0 62.959 28.247 62.959 62.959s-28.247 62.959-62.959 62.959-62.959-28.247-62.959-62.959 28.247-62.959 62.959-62.959z" fill=""/></g></g></g></svg>
