<svg id="bold" enable-background="new 0 0 32 32" height="512" viewBox="0 0 32 32" width="512" xmlns="http://www.w3.org/2000/svg"><path d="m26 32h-20c-3.314 0-6-2.686-6-6v-20c0-3.314 2.686-6 6-6h20c3.314 0 6 2.686 6 6v20c0 3.314-2.686 6-6 6z" fill="#fff9dd"/><path d="m21.333 21.667h-3.667v-.5c0-.276-.224-.5-.5-.5h-.5v-2c.001-.368-.298-.667-.666-.667s-.667.299-.667.667v2h-.5c-.276 0-.5.224-.5.5v.5h-3.667c-.368 0-.667.299-.667.667s.299.666.668.666h3.667v.5c0 .276.224.5.5.5h2.333c.276 0 .5-.224.5-.5v-.5h3.667c.368 0 .666-.298.666-.667s-.298-.666-.667-.666z" fill="#ffe777"/><g fill="#ffd200"><path d="m20.833 8h-9.667c-.643 0-1.166.523-1.166 1.167v6c0 .643.523 1.167 1.167 1.167h3.5v1h-.667c-.368 0-.667.299-.667.667s.299.667.667.667h4c.368 0 .667-.299.667-.667s-.298-.668-.667-.668h-.667v-1h3.5c.643 0 1.167-.523 1.167-1.167v-6c0-.643-.523-1.166-1.167-1.166zm-.166 7h-9.333v-5.667h9.333z"/><path d="m17.167 24h-2.333c-.276 0-.5-.224-.5-.5v-2.333c0-.276.224-.5.5-.5h2.333c.276 0 .5.224.5.5v2.333c0 .276-.224.5-.5.5z"/></g></svg>