<?xml version="1.0"?>
<svg xmlns="http://www.w3.org/2000/svg" xmlns:xlink="http://www.w3.org/1999/xlink" xmlns:svgjs="http://svgjs.com/svgjs" version="1.1" width="512" height="512" x="0" y="0" viewBox="0 0 512 512" style="enable-background:new 0 0 512 512" xml:space="preserve" class=""><g><linearGradient xmlns="http://www.w3.org/2000/svg" id="SVGID_1_" gradientUnits="userSpaceOnUse" x1="256" x2="256" y1="512" y2="0"><stop stop-opacity="1" stop-color="#ffffff" offset="0.637186635598024"/><stop stop-opacity="1" stop-color="#f3f3f3" offset="1"/></linearGradient><linearGradient xmlns="http://www.w3.org/2000/svg" id="SVGID_2_" gradientUnits="userSpaceOnUse" x1="256" x2="256" y1="433.672" y2="80.364"><stop stop-opacity="1" stop-color="#00c0ff" offset="0"/><stop stop-opacity="1" stop-color="#55a8ff" offset="0.9885160053504924"/></linearGradient><g xmlns="http://www.w3.org/2000/svg"><circle cx="256" cy="256" fill="url(#SVGID_1_)" r="256" data-original="url(#SVGID_1_)" style=""/><g><path d="m400.506 229.018h-54.564c-4.971 0-8.994 4.023-8.994 8.994v153.5h-17.988v-225.453c0-4.971-4.023-8.994-8.994-8.994h-53.966c-4.971 0-8.994 4.023-8.994 8.994v225.453h-17.988v-81.547c0-4.971-4.023-8.994-8.994-8.994h-54.564c-4.971 0-8.994 4.023-8.994 8.994v81.547h-35.977v-280.018c0-4.971-4.023-8.994-8.994-8.994s-8.994 4.023-8.994 8.994v289.012c0 4.971 4.023 8.994 8.994 8.994h289.012c4.971 0 8.994-4.023 8.994-8.994v-162.494c-.001-4.972-4.024-8.994-8.995-8.994z" fill="url(#SVGID_2_)" data-original="url(#SVGID_2_)" style=""/></g></g></g></svg>
