<svg enable-background="new 0 0 32 32" height="512" viewBox="0 0 32 32" width="512" xmlns="http://www.w3.org/2000/svg"><path d="m26 32h-20c-3.314 0-6-2.686-6-6v-20c0-3.314 2.686-6 6-6h20c3.314 0 6 2.686 6 6v20c0 3.314-2.686 6-6 6z" fill="#fff9dd"/><g fill="#ffe777"><path d="m16 11.167c-.368 0-.667-.299-.667-.667v-1.833c0-.369.299-.667.667-.667s.667.299.667.667v1.833c0 .368-.299.667-.667.667z"/><path d="m20.593 13.073c-.171 0-.341-.065-.471-.195-.26-.26-.26-.683 0-.943l1.407-1.407c.26-.26.682-.26.943 0s.26.683 0 .943l-1.407 1.407c-.131.13-.301.195-.472.195z"/><path d="m18 9.333h-4c-.368 0-.667-.299-.667-.667s.298-.666.667-.666h4c.368 0 .667.299.667.667s-.298.666-.667.666z"/></g><path d="m16 10c-3.86 0-7 3.14-7 7s3.14 7 7 7 7-3.14 7-7-3.14-7-7-7zm2.4 10.2c-.12.09-.26.133-.399.133-.203 0-.403-.092-.534-.267l-2-2.667c-.087-.115-.133-.255-.133-.4v-3.667c0-.368.299-.667.667-.667s.667.298.667.667v3.445l1.867 2.489c.219.295.16.713-.135.934z" fill="#ffd200"/></svg>