<svg enable-background="new 0 0 32 32" height="512" viewBox="0 0 32 32" width="512" xmlns="http://www.w3.org/2000/svg"><path d="m26 32h-20c-3.314 0-6-2.686-6-6v-20c0-3.314 2.686-6 6-6h20c3.314 0 6 2.686 6 6v20c0 3.314-2.686 6-6 6z" fill="#e3f8fa"/><path d="m21.333 22.667h-.667v-2.182c0-1.085-.462-2.124-1.269-2.85l-1.129-1.015c-.178-.16-.276-.381-.276-.62s.098-.459.276-.619l1.129-1.016c.807-.726 1.269-1.764 1.269-2.85v-2.182h.667c.369 0 .667-.298.667-.666s-.298-.667-.667-.667h-10.666c-.369 0-.667.298-.667.667s.298.667.667.667h.667v2.182c0 1.085.462 2.124 1.269 2.85l1.129 1.015c.178.16.276.381.276.62s-.098.459-.276.619l-1.129 1.016c-.807.726-1.269 1.764-1.269 2.85v2.182h-.667c-.368 0-.667.299-.667.667s.298.665.667.665h10.667c.368 0 .666-.298.666-.667s-.298-.666-.667-.666z" fill="#26c6da"/><g fill="#8ce1eb"><path d="m17.931 12.943-1.577 1.577c-.098.098-.225.146-.354.146s-.256-.049-.354-.146l-1.577-1.577c-.475-.475-.736-1.105-.736-1.776 0-.276.224-.5.5-.5h4.333c.276 0 .5.224.5.5.001.67-.26 1.301-.735 1.776z"/><path d="m13.333 22.386c0-.49.191-.95.537-1.297l1.776-1.776c.195-.195.512-.195.707 0l1.776 1.776c.346.346.537.807.537 1.297v.281h-5.333z"/></g></svg>